<svg xmlns="http://www.w3.org/2000/svg" width="16" height="16" viewBox="0 0 16 16">
    <g fill="none" fill-rule="evenodd">
        <g fill-rule="nonzero">
            <g>
                <g>
                    <g transform="translate(-441.000000, -241.000000) translate(316.000000, 233.000000) translate(8.000000, 6.000000) translate(117.000000, 2.000000)">
                        <rect width="16" height="16" fill="#8092AB" rx="8"/>
                        <path fill="#FFFFFE" fill-opacity=".988" d="M10.621 9.869L8.753 8l1.873-1.873c.207-.207.207-.541 0-.748-.206-.206-.54-.206-.747 0L8.006 7.253 6.129 5.376c-.208-.208-.545-.208-.753 0-.208.208-.208.545 0 .753l1.877 1.877L5.38 9.879c-.206.206-.206.54 0 .747.207.207.542.207.748 0l1.873-1.873 1.868 1.868c.208.208.545.208.752 0 .208-.208.208-.544 0-.752z" transform="translate(8.000109, 8.000007) rotate(-270.000000) translate(-8.000109, -8.000007)"/>
                    </g>
                </g>
            </g>
        </g>
    </g>
</svg>
