<svg xmlns="http://www.w3.org/2000/svg" width="16" height="16" viewBox="0 0 16 16">
    <g fill="none" fill-rule="evenodd">
        <g fill="#61656F" fill-rule="nonzero">
            <g>
                <g>
                    <g>
                        <path d="M6.25 0c.102 0 .199.02.287.057.056.023.11.053.16.09.03.023.057.047.083.073l4 4c.293.293.293.767 0 1.06-.266.267-.683.29-.976.073L9.72 5.28 7 2.56v6.19c0 .414-.336.75-.75.75-.38 0-.693-.282-.743-.648L5.5 8.75V2.56L2.78 5.28c-.266.267-.683.29-.976.073L1.72 5.28c-.267-.266-.29-.683-.073-.976l.073-.084 4-4c.072-.072.155-.127.243-.163C6.052.02 6.148 0 6.25 0zm6.25 11.75c0-.414-.336-.75-.75-.75h-11l-.102.007c-.366.05-.648.363-.648.743 0 .414.336.75.75.75h11l.102-.007c.366-.05.648-.363.648-.743z" transform="translate(-1175.000000, -197.000000) translate(1158.000000, 189.000000) translate(17.000000, 8.000000) translate(2.000000, 2.000000)"/>
                    </g>
                </g>
            </g>
        </g>
    </g>
</svg>
