<svg width="16" height="16" xmlns="http://www.w3.org/2000/svg" fill="var(--icon-dark-gray)"><path d="M9.5 0a.5.5 0 0 1 .5.5v1.849l.2.073a5.98 5.98 0 0 1 1.534.885l.161.135 1.6-.924a.5.5 0 0 1 .631.11l.052.073 1.5 2.598a.5.5 0 0 1-.183.683l-1.602.924.039.216c.03.195.05.39.06.585L14 8c0 .291-.023.582-.067.875l-.039.218 1.603.926a.5.5 0 0 1 .221.601l-.038.082-1.5 2.598a.5.5 0 0 1-.683.183l-1.602-.925-.162.136a6 6 0 0 1-1.531.884l-.201.073V15.5a.5.5 0 0 1-.41.492L9.5 16h-3a.5.5 0 0 1-.5-.5v-1.85l-.2-.072a5.974 5.974 0 0 1-1.534-.885l-.162-.135-1.6.924a.5.5 0 0 1-.631-.11l-.052-.073-1.5-2.598a.5.5 0 0 1 .183-.683l1.601-.925-.038-.215c-.03-.195-.05-.39-.06-.585L2 8c0-.293.023-.585.068-.878l.038-.216-1.601-.924a.5.5 0 0 1-.221-.601l.038-.082 1.5-2.598a.5.5 0 0 1 .683-.183l1.599.924.163-.135c.463-.369.98-.667 1.532-.885L6 2.348V.5a.5.5 0 0 1 .41-.492L6.5 0zM9 1H7v1.712a.5.5 0 0 1-.286.452l-.077.029a5 5 0 0 0-2.119 1.223.5.5 0 0 1-.598.074l-1.482-.856-1 1.732 1.484.857a.5.5 0 0 1 .248.473l-.013.082A5.006 5.006 0 0 0 3 8c0 .403.053.81.157 1.222a.5.5 0 0 1-.235.555l-1.484.856 1 1.732 1.483-.855a.5.5 0 0 1 .525.015l.074.06a4.976 4.976 0 0 0 2.117 1.22.5.5 0 0 1 .364.482V15h2v-1.712a.5.5 0 0 1 .286-.452l.078-.029a5.002 5.002 0 0 0 2.118-1.222.5.5 0 0 1 .598-.074l1.482.855 1-1.732-1.483-.856a.5.5 0 0 1-.25-.46l.014-.092C12.947 8.808 13 8.4 13 8c0-.404-.053-.809-.157-1.222a.5.5 0 0 1 .235-.555l1.483-.857-1-1.732-1.48.856a.5.5 0 0 1-.526-.015l-.074-.06a4.976 4.976 0 0 0-2.117-1.22A.5.5 0 0 1 9 2.712V1zM8 5a3 3 0 1 1 0 6 3 3 0 0 1 0-6zm0 1a2 2 0 1 0 0 4 2 2 0 0 0 0-4z"/></svg>