<?xml version="1.0" encoding="UTF-8"?>
<svg width="16px" height="16px" viewBox="0 0 16 16" version="1.1" xmlns="http://www.w3.org/2000/svg" xmlns:xlink="http://www.w3.org/1999/xlink">
    <title>alarm copy 3</title>
    <g id="Other-Components" stroke="none" stroke-width="1" fill="none" fill-rule="evenodd">
        <g id="Header---DWP---Dark" transform="translate(-1166.000000, -685.000000)" fill="#61656F" fill-rule="nonzero">
            <g id="Header-3" transform="translate(0.000000, 663.000000)">
                <g id="Notification" transform="translate(1156.000000, 12.000000)">
                    <g id="alarm" transform="translate(10.000000, 10.000000)">
                        <path d="M15.3333333,10.6666667 C14.2691771,10.5747089 13.4252911,9.73082289 13.3333333,8.66666667 L13.3333333,5.33333333 C13.3333333,2.38781467 10.9455187,0 8,0 C5.05448133,0 2.66666667,2.38781467 2.66666667,5.33333333 L2.66666667,8.66666667 C2.5747089,9.73082289 1.73082289,10.5747089 0.666666667,10.6666667 C0.298476833,10.6666667 0,10.9651435 0,11.3333333 C0,11.7015232 0.298476833,12 0.666666667,12 L15.3333333,12 C15.7015232,12 16,11.7015232 16,11.3333333 C16,10.9651435 15.7015232,10.6666667 15.3333333,10.6666667 Z" id="Path"></path>
                        <path d="M8,16 C9.47275933,16 10.6666667,14.8060927 10.6666667,13.3333333 L5.33333333,13.3333333 C5.33333333,14.8060927 6.52724067,16 8,16 Z" id="Path"></path>
                    </g>
                </g>
            </g>
        </g>
    </g>
</svg>