<svg width="16" height="16" xmlns="http://www.w3.org/2000/svg">
    <path d="M1.75 8a.75.75 0 0 1 .743.648l.007.102v4.188L6.22 9.22a.75.75 0 0 1 1.133.976l-.073.084L3.56 14h4.19a.75.75 0 0 1 .743.648l.007.102a.75.75 0 0 1-.648.743l-.102.007H1.722a.754.754 0 0 1-.046-.004l.074.004a.754.754 0 0 1-.601-.301l.07.081a.753.753 0 0 1-.212-.428L1 14.75v-6A.75.75 0 0 1 1.75 8zm13-7h.017c.02 0 .04.002.06.004L14.75 1a.754.754 0 0 1 .601.301l-.07-.081a.753.753 0 0 1 .212.428l.007.102v6a.75.75 0 0 1-1.493.102L14 7.75V3.56l-3.72 3.72a.75.75 0 0 1-1.133-.976l.073-.084 3.718-3.72H8.75a.75.75 0 0 1-.743-.648L8 1.75a.75.75 0 0 1 .648-.743L8.75 1h6z" fill="#61656F" fill-rule="nonzero"/>
</svg>
