<svg xmlns="http://www.w3.org/2000/svg" width="16" height="16" viewBox="0 0 16 16"><g fill-rule="nonzero"><path d="M8.64145 7.35855c-.19527-.19526-.19527-.51184 0-.7071.19526-.19527.51184-.19527.7071 0 1.56927 1.56926 1.56927 4.11284 0 5.6821l-1.99 1.99c-1.56926 1.56927-4.11284 1.56927-5.6821 0-1.56927-1.56926-1.56927-4.11284.00516-5.6872l1.748-1.698c.19808-.1924.51463-.18781.70704.01026.1924.19808.18781.51463-.01026.70704l-1.74284 1.6929c-1.17873 1.17874-1.17873 3.08916 0 4.2679 1.17874 1.17873 3.08916 1.17873 4.2679 0l1.99-1.99c1.17873-1.17874 1.17873-3.08916 0-4.2679z"/><path d="M7.35855 8.64145c.19527.19526.19527.51184 0 .7071-.19526.19527-.51184.19527-.7071 0-1.56927-1.56926-1.56927-4.11284 0-5.6821l1.99-1.99c1.56926-1.56927 4.11284-1.56927 5.6821 0 1.56927 1.56926 1.56927 4.11284-.00516 5.6872l-1.748 1.698c-.19808.1924-.51463.18781-.70704-.01026-.1924-.19808-.18781-.51463.01026-.70704l1.74284-1.6929c1.17873-1.17874 1.17873-3.08916 0-4.2679-1.17874-1.17873-3.08916-1.17873-4.2679 0l-1.99 1.99c-1.17873 1.17874-1.17873 3.08916 0 4.2679z"/></g></svg>