<svg width="352" height="61" fill="none" xmlns="http://www.w3.org/2000/svg" viewbox="0 0 352 61"><rect width="352" height="61" rx="10" fill="#0565FF" /><rect x="1" y="4" width="350" height="56" rx="9" fill="white" stroke="#0565FF" stroke-width="2" /><path d="M16.4091 37V25.3636H17.8182V31.1364H17.9545L23.1818 25.3636H25.0227L20.1364 30.6136L25.0227 37H23.3182L19.2727 31.5909L17.8182 33.2273V37H16.4091ZM27.2116 37V28.2727H28.5526V37H27.2116ZM27.8935 26.8182C27.6321 26.8182 27.4067 26.7292 27.2173 26.5511C27.0317 26.3731 26.9389 26.1591 26.9389 25.9091C26.9389 25.6591 27.0317 25.4451 27.2173 25.267C27.4067 25.089 27.6321 25 27.8935 25C28.1548 25 28.3783 25.089 28.5639 25.267C28.7533 25.4451 28.848 25.6591 28.848 25.9091C28.848 26.1591 28.7533 26.3731 28.5639 26.5511C28.3783 26.7292 28.1548 26.8182 27.8935 26.8182ZM37.1903 30.2273L35.9858 30.5682C35.91 30.3674 35.7983 30.1723 35.6506 29.983C35.5066 29.7898 35.3097 29.6307 35.0597 29.5057C34.8097 29.3807 34.4896 29.3182 34.0994 29.3182C33.5653 29.3182 33.1203 29.4413 32.7642 29.6875C32.4119 29.9299 32.2358 30.2386 32.2358 30.6136C32.2358 30.947 32.357 31.2102 32.5994 31.4034C32.8419 31.5966 33.2206 31.7576 33.7358 31.8864L35.0312 32.2045C35.8116 32.3939 36.393 32.6837 36.7756 33.0739C37.1581 33.4602 37.3494 33.9583 37.3494 34.5682C37.3494 35.0682 37.2055 35.5152 36.9176 35.9091C36.6335 36.303 36.2358 36.6136 35.7244 36.8409C35.2131 37.0682 34.6184 37.1818 33.9403 37.1818C33.0502 37.1818 32.3134 36.9886 31.7301 36.6023C31.1468 36.2159 30.7775 35.6515 30.6222 34.9091L31.8949 34.5909C32.0161 35.0606 32.2453 35.4129 32.5824 35.6477C32.9233 35.8826 33.3684 36 33.9176 36C34.5426 36 35.0388 35.8674 35.4062 35.6023C35.7775 35.3333 35.9631 35.0114 35.9631 34.6364C35.9631 34.3333 35.857 34.0795 35.6449 33.875C35.4328 33.6667 35.107 33.5114 34.6676 33.4091L33.2131 33.0682C32.4138 32.8788 31.8267 32.5852 31.4517 32.1875C31.0805 31.786 30.8949 31.2841 30.8949 30.6818C30.8949 30.1894 31.0331 29.7538 31.3097 29.375C31.59 28.9962 31.9706 28.6989 32.4517 28.483C32.9366 28.267 33.4858 28.1591 34.0994 28.1591C34.9631 28.1591 35.6411 28.3485 36.1335 28.7273C36.6297 29.1061 36.982 29.6061 37.1903 30.2273ZM45.5497 30.2273L44.3452 30.5682C44.2694 30.3674 44.1577 30.1723 44.0099 29.983C43.866 29.7898 43.669 29.6307 43.419 29.5057C43.169 29.3807 42.849 29.3182 42.4588 29.3182C41.9247 29.3182 41.4796 29.4413 41.1236 29.6875C40.7713 29.9299 40.5952 30.2386 40.5952 30.6136C40.5952 30.947 40.7164 31.2102 40.9588 31.4034C41.2012 31.5966 41.58 31.7576 42.0952 31.8864L43.3906 32.2045C44.1709 32.3939 44.7524 32.6837 45.1349 33.0739C45.5175 33.4602 45.7088 33.9583 45.7088 34.5682C45.7088 35.0682 45.5649 35.5152 45.277 35.9091C44.9929 36.303 44.5952 36.6136 44.0838 36.8409C43.5724 37.0682 42.9777 37.1818 42.2997 37.1818C41.4096 37.1818 40.6728 36.9886 40.0895 36.6023C39.5062 36.2159 39.1368 35.6515 38.9815 34.9091L40.2543 34.5909C40.3755 35.0606 40.6046 35.4129 40.9418 35.6477C41.2827 35.8826 41.7277 36 42.277 36C42.902 36 43.3982 35.8674 43.7656 35.6023C44.1368 35.3333 44.3224 35.0114 44.3224 34.6364C44.3224 34.3333 44.2164 34.0795 44.0043 33.875C43.7921 33.6667 43.4664 33.5114 43.027 33.4091L41.5724 33.0682C40.7732 32.8788 40.1861 32.5852 39.8111 32.1875C39.4399 31.786 39.2543 31.2841 39.2543 30.6818C39.2543 30.1894 39.3925 29.7538 39.669 29.375C39.9493 28.9962 40.33 28.6989 40.8111 28.483C41.2959 28.267 41.8452 28.1591 42.4588 28.1591C43.3224 28.1591 44.0005 28.3485 44.4929 28.7273C44.9891 29.1061 45.3414 29.6061 45.5497 30.2273ZM51.6136 28.2727V29.4091H46.9091V28.2727H51.6136ZM48.3182 37V27.0682C48.3182 26.5682 48.4356 26.1515 48.6705 25.8182C48.9053 25.4848 49.2102 25.2348 49.5852 25.0682C49.9602 24.9015 50.3561 24.8182 50.7727 24.8182C51.1023 24.8182 51.3712 24.8447 51.5795 24.8977C51.7879 24.9508 51.9432 25 52.0455 25.0455L51.6591 26.2045C51.5909 26.1818 51.4962 26.1534 51.375 26.1193C51.2576 26.0852 51.1023 26.0682 50.9091 26.0682C50.4659 26.0682 50.1458 26.1799 49.9489 26.4034C49.7557 26.6269 49.6591 26.9545 49.6591 27.3864V37H48.3182ZM54.8338 25.3636V37H53.4929V25.3636H54.8338ZM60.8352 37.1818C60.0473 37.1818 59.3561 36.9943 58.7614 36.6193C58.1705 36.2443 57.7083 35.7197 57.375 35.0455C57.0455 34.3712 56.8807 33.5833 56.8807 32.6818C56.8807 31.7727 57.0455 30.9792 57.375 30.3011C57.7083 29.6231 58.1705 29.0966 58.7614 28.7216C59.3561 28.3466 60.0473 28.1591 60.8352 28.1591C61.6231 28.1591 62.3125 28.3466 62.9034 28.7216C63.4981 29.0966 63.9602 29.6231 64.2898 30.3011C64.6231 30.9792 64.7898 31.7727 64.7898 32.6818C64.7898 33.5833 64.6231 34.3712 64.2898 35.0455C63.9602 35.7197 63.4981 36.2443 62.9034 36.6193C62.3125 36.9943 61.6231 37.1818 60.8352 37.1818ZM60.8352 35.9773C61.4337 35.9773 61.9261 35.8239 62.3125 35.517C62.6989 35.2102 62.9848 34.8068 63.1705 34.3068C63.3561 33.8068 63.4489 33.2652 63.4489 32.6818C63.4489 32.0985 63.3561 31.5549 63.1705 31.0511C62.9848 30.5473 62.6989 30.1402 62.3125 29.8295C61.9261 29.5189 61.4337 29.3636 60.8352 29.3636C60.2367 29.3636 59.7443 29.5189 59.358 29.8295C58.9716 30.1402 58.6856 30.5473 58.5 31.0511C58.3144 31.5549 58.2216 32.0985 58.2216 32.6818C58.2216 33.2652 58.3144 33.8068 58.5 34.3068C58.6856 34.8068 58.9716 35.2102 59.358 35.517C59.7443 35.8239 60.2367 35.9773 60.8352 35.9773ZM68.517 37L65.858 28.2727H67.267L69.1534 34.9545H69.2443L71.108 28.2727H72.5398L74.3807 34.9318H74.4716L76.358 28.2727H77.767L75.108 37H73.7898L71.8807 30.2955H71.7443L69.8352 37H68.517ZM84.0398 40.2727V28.2727H85.3352V29.6591H85.4943C85.5928 29.5076 85.7292 29.3144 85.9034 29.0795C86.0814 28.8409 86.3352 28.6288 86.6648 28.4432C86.9981 28.2538 87.4489 28.1591 88.017 28.1591C88.7519 28.1591 89.3996 28.3428 89.9602 28.7102C90.5208 29.0777 90.9583 29.5985 91.2727 30.2727C91.5871 30.947 91.7443 31.7424 91.7443 32.6591C91.7443 33.5833 91.5871 34.3845 91.2727 35.0625C90.9583 35.7367 90.5227 36.2595 89.9659 36.6307C89.4091 36.9981 88.767 37.1818 88.0398 37.1818C87.4792 37.1818 87.0303 37.089 86.6932 36.9034C86.3561 36.714 86.0966 36.5 85.9148 36.2614C85.733 36.0189 85.5928 35.8182 85.4943 35.6591H85.3807V40.2727H84.0398ZM85.358 32.6364C85.358 33.2955 85.4545 33.8769 85.6477 34.3807C85.8409 34.8807 86.1231 35.2727 86.4943 35.5568C86.8655 35.8371 87.3201 35.9773 87.858 35.9773C88.4186 35.9773 88.8864 35.8295 89.2614 35.5341C89.6402 35.2348 89.9242 34.8333 90.1136 34.3295C90.3068 33.822 90.4034 33.2576 90.4034 32.6364C90.4034 32.0227 90.3087 31.4697 90.1193 30.9773C89.9337 30.4811 89.6515 30.089 89.2727 29.8011C88.8977 29.5095 88.4261 29.3636 87.858 29.3636C87.3125 29.3636 86.8542 29.5019 86.483 29.7784C86.1117 30.0511 85.8314 30.4337 85.642 30.9261C85.4527 31.4148 85.358 31.9848 85.358 32.6364ZM95.1307 25.3636V37H93.7898V25.3636H95.1307ZM100.155 37.2045C99.6018 37.2045 99.0999 37.1004 98.6491 36.892C98.1984 36.6799 97.8404 36.375 97.5753 35.9773C97.3101 35.5758 97.1776 35.0909 97.1776 34.5227C97.1776 34.0227 97.276 33.6174 97.473 33.3068C97.67 32.9924 97.9332 32.7462 98.2628 32.5682C98.5923 32.3902 98.956 32.2576 99.3537 32.1705C99.7552 32.0795 100.159 32.0076 100.564 31.9545C101.094 31.8864 101.524 31.8352 101.854 31.8011C102.187 31.7633 102.429 31.7008 102.581 31.6136C102.736 31.5265 102.814 31.375 102.814 31.1591V31.1136C102.814 30.553 102.661 30.1174 102.354 29.8068C102.051 29.4962 101.59 29.3409 100.973 29.3409C100.333 29.3409 99.831 29.4811 99.4673 29.7614C99.1037 30.0417 98.848 30.3409 98.7003 30.6591L97.4276 30.2045C97.6548 29.6742 97.9579 29.2614 98.3366 28.9659C98.7192 28.6667 99.1359 28.4583 99.5866 28.3409C100.041 28.2197 100.488 28.1591 100.928 28.1591C101.208 28.1591 101.53 28.1932 101.893 28.2614C102.261 28.3258 102.615 28.4602 102.956 28.6648C103.301 28.8693 103.587 29.178 103.814 29.5909C104.041 30.0038 104.155 30.5568 104.155 31.25V37H102.814V35.8182H102.746C102.655 36.0076 102.503 36.2102 102.291 36.4261C102.079 36.642 101.797 36.8258 101.445 36.9773C101.092 37.1288 100.662 37.2045 100.155 37.2045ZM100.359 36C100.89 36 101.337 35.8958 101.7 35.6875C102.068 35.4792 102.344 35.2102 102.53 34.8807C102.719 34.5511 102.814 34.2045 102.814 33.8409V32.6136C102.757 32.6818 102.632 32.7443 102.439 32.8011C102.25 32.8542 102.03 32.9015 101.78 32.9432C101.534 32.9811 101.293 33.0152 101.058 33.0455C100.827 33.072 100.64 33.0947 100.496 33.1136C100.147 33.1591 99.8215 33.233 99.5185 33.3352C99.2192 33.4337 98.9768 33.5833 98.7912 33.7841C98.6094 33.9811 98.5185 34.25 98.5185 34.5909C98.5185 35.0568 98.6908 35.4091 99.0355 35.6477C99.384 35.8826 99.8253 36 100.359 36ZM107.943 31.75V37H106.602V28.2727H107.898V29.6364H108.011C108.216 29.1932 108.527 28.8371 108.943 28.5682C109.36 28.2955 109.898 28.1591 110.557 28.1591C111.148 28.1591 111.665 28.2803 112.108 28.5227C112.551 28.7614 112.896 29.125 113.142 29.6136C113.388 30.0985 113.511 30.7121 113.511 31.4545V37H112.17V31.5455C112.17 30.8598 111.992 30.3258 111.636 29.9432C111.28 29.5568 110.792 29.3636 110.17 29.3636C109.742 29.3636 109.36 29.4564 109.023 29.642C108.689 29.8277 108.426 30.0985 108.233 30.4545C108.04 30.8106 107.943 31.2424 107.943 31.75ZM122.143 30.2273L120.939 30.5682C120.863 30.3674 120.751 30.1723 120.604 29.983C120.46 29.7898 120.263 29.6307 120.013 29.5057C119.763 29.3807 119.443 29.3182 119.053 29.3182C118.518 29.3182 118.073 29.4413 117.717 29.6875C117.365 29.9299 117.189 30.2386 117.189 30.6136C117.189 30.947 117.31 31.2102 117.553 31.4034C117.795 31.5966 118.174 31.7576 118.689 31.8864L119.984 32.2045C120.765 32.3939 121.346 32.6837 121.729 33.0739C122.111 33.4602 122.303 33.9583 122.303 34.5682C122.303 35.0682 122.159 35.5152 121.871 35.9091C121.587 36.303 121.189 36.6136 120.678 36.8409C120.166 37.0682 119.571 37.1818 118.893 37.1818C118.003 37.1818 117.267 36.9886 116.683 36.6023C116.1 36.2159 115.731 35.6515 115.575 34.9091L116.848 34.5909C116.969 35.0606 117.198 35.4129 117.536 35.6477C117.876 35.8826 118.321 36 118.871 36C119.496 36 119.992 35.8674 120.359 35.6023C120.731 35.3333 120.916 35.0114 120.916 34.6364C120.916 34.3333 120.81 34.0795 120.598 33.875C120.386 33.6667 120.06 33.5114 119.621 33.4091L118.166 33.0682C117.367 32.8788 116.78 32.5852 116.405 32.1875C116.034 31.786 115.848 31.2841 115.848 30.6818C115.848 30.1894 115.986 29.7538 116.263 29.375C116.543 28.9962 116.924 28.6989 117.405 28.483C117.89 28.267 118.439 28.1591 119.053 28.1591C119.916 28.1591 120.594 28.3485 121.087 28.7273C121.583 29.1061 121.935 29.6061 122.143 30.2273ZM125.298 37.0909C125.018 37.0909 124.777 36.9905 124.577 36.7898C124.376 36.589 124.276 36.3485 124.276 36.0682C124.276 35.7879 124.376 35.5473 124.577 35.3466C124.777 35.1458 125.018 35.0455 125.298 35.0455C125.579 35.0455 125.819 35.1458 126.02 35.3466C126.221 35.5473 126.321 35.7879 126.321 36.0682C126.321 36.2538 126.274 36.4242 126.179 36.5795C126.088 36.7348 125.965 36.8598 125.81 36.9545C125.658 37.0455 125.488 37.0909 125.298 37.0909ZM125.298 30.6136C125.018 30.6136 124.777 30.5133 124.577 30.3125C124.376 30.1117 124.276 29.8712 124.276 29.5909C124.276 29.3106 124.376 29.0701 124.577 28.8693C124.777 28.6686 125.018 28.5682 125.298 28.5682C125.579 28.5682 125.819 28.6686 126.02 28.8693C126.221 29.0701 126.321 29.3106 126.321 29.5909C126.321 29.7765 126.274 29.947 126.179 30.1023C126.088 30.2576 125.965 30.3826 125.81 30.4773C125.658 30.5682 125.488 30.6136 125.298 30.6136Z" fill="black" /><circle cx="157" cy="31.5" r="8" stroke="#CF2C91" stroke-width="2" /><path fill-rule="evenodd" clip-rule="evenodd" d="M160.167 29.0458L159.579 28.4583L157.25 30.7875L154.921 28.4583L154.333 29.0458L156.662 31.375L154.333 33.7042L154.921 34.2917L157.25 31.9625L159.579 34.2917L160.167 33.7042L157.837 31.375L160.167 29.0458Z" fill="#777B80" stroke="#CF2C91" /><path d="M175.278 37V25.3636H179.54C180.366 25.3636 181.049 25.5 181.591 25.7727C182.133 26.0417 182.538 26.4072 182.807 26.8693C183.076 27.3277 183.21 27.8447 183.21 28.4205C183.21 28.9053 183.121 29.3144 182.943 29.6477C182.765 29.9773 182.527 30.2424 182.227 30.4432C181.932 30.6402 181.606 30.7841 181.25 30.875V30.9886C181.636 31.0076 182.013 31.1326 182.381 31.3636C182.752 31.5909 183.059 31.9148 183.301 32.3352C183.544 32.7557 183.665 33.267 183.665 33.8693C183.665 34.464 183.525 34.9981 183.244 35.4716C182.968 35.9413 182.54 36.3144 181.96 36.5909C181.381 36.8636 180.64 37 179.739 37H175.278ZM177.034 35.4943H179.568C180.409 35.4943 181.011 35.3314 181.375 35.0057C181.739 34.6799 181.92 34.2727 181.92 33.7841C181.92 33.4167 181.828 33.0795 181.642 32.7727C181.456 32.4659 181.191 32.2216 180.847 32.0398C180.506 31.858 180.1 31.767 179.631 31.767H177.034V35.4943ZM177.034 30.3977H179.386C179.78 30.3977 180.134 30.322 180.449 30.1705C180.767 30.0189 181.019 29.8068 181.205 29.5341C181.394 29.2576 181.489 28.9318 181.489 28.5568C181.489 28.0758 181.32 27.6723 180.983 27.3466C180.646 27.0208 180.129 26.858 179.432 26.858H177.034V30.3977ZM188.151 37.1932C187.598 37.1932 187.098 37.0909 186.651 36.8864C186.204 36.678 185.849 36.3769 185.588 35.983C185.33 35.589 185.202 35.1061 185.202 34.5341C185.202 34.0417 185.296 33.6364 185.486 33.3182C185.675 33 185.931 32.7481 186.253 32.5625C186.575 32.3769 186.935 32.2367 187.332 32.142C187.73 32.0473 188.135 31.9754 188.548 31.9261C189.071 31.8655 189.495 31.8163 189.821 31.7784C190.147 31.7367 190.384 31.6705 190.531 31.5795C190.679 31.4886 190.753 31.3409 190.753 31.1364V31.0966C190.753 30.6004 190.613 30.2159 190.332 29.9432C190.056 29.6705 189.643 29.5341 189.094 29.5341C188.522 29.5341 188.071 29.661 187.741 29.9148C187.416 30.1648 187.19 30.4432 187.065 30.75L185.469 30.3864C185.658 29.8561 185.935 29.428 186.298 29.1023C186.666 28.7727 187.088 28.5341 187.565 28.3864C188.043 28.2348 188.545 28.1591 189.071 28.1591C189.42 28.1591 189.789 28.2008 190.179 28.2841C190.573 28.3636 190.94 28.5114 191.281 28.7273C191.626 28.9432 191.908 29.2519 192.128 29.6534C192.348 30.0511 192.457 30.5682 192.457 31.2045V37H190.798V35.8068H190.73C190.62 36.0265 190.455 36.2424 190.236 36.4545C190.016 36.6667 189.734 36.8428 189.389 36.983C189.045 37.1231 188.632 37.1932 188.151 37.1932ZM188.52 35.8295C188.99 35.8295 189.391 35.7367 189.724 35.5511C190.062 35.3655 190.317 35.1231 190.491 34.8239C190.67 34.5208 190.759 34.197 190.759 33.8523V32.7273C190.698 32.7879 190.58 32.8447 190.406 32.8977C190.236 32.947 190.041 32.9905 189.821 33.0284C189.601 33.0625 189.387 33.0947 189.179 33.125C188.971 33.1515 188.796 33.1742 188.656 33.1932C188.327 33.2348 188.026 33.3049 187.753 33.4034C187.484 33.5019 187.268 33.6439 187.105 33.8295C186.946 34.0114 186.866 34.2538 186.866 34.5568C186.866 34.9773 187.022 35.2955 187.332 35.5114C187.643 35.7235 188.039 35.8295 188.52 35.8295ZM201.26 30.4034L199.72 30.6761C199.656 30.4792 199.554 30.2917 199.413 30.1136C199.277 29.9356 199.091 29.7898 198.857 29.6761C198.622 29.5625 198.328 29.5057 197.976 29.5057C197.495 29.5057 197.093 29.6136 196.771 29.8295C196.449 30.0417 196.288 30.3163 196.288 30.6534C196.288 30.9451 196.396 31.1799 196.612 31.358C196.828 31.536 197.177 31.6818 197.658 31.7955L199.044 32.1136C199.847 32.2992 200.446 32.5852 200.839 32.9716C201.233 33.358 201.43 33.8598 201.43 34.4773C201.43 35 201.279 35.4659 200.976 35.875C200.677 36.2803 200.258 36.5985 199.72 36.8295C199.186 37.0606 198.567 37.1761 197.862 37.1761C196.885 37.1761 196.088 36.9678 195.47 36.5511C194.853 36.1307 194.474 35.5341 194.334 34.7614L195.976 34.5114C196.078 34.9394 196.288 35.2633 196.607 35.483C196.925 35.6989 197.339 35.8068 197.851 35.8068C198.408 35.8068 198.853 35.6913 199.186 35.4602C199.519 35.2254 199.686 34.9394 199.686 34.6023C199.686 34.3295 199.584 34.1004 199.379 33.9148C199.179 33.7292 198.87 33.589 198.453 33.4943L196.976 33.1705C196.161 32.9848 195.559 32.6894 195.169 32.2841C194.783 31.8788 194.589 31.3655 194.589 30.7443C194.589 30.2292 194.733 29.7784 195.021 29.392C195.309 29.0057 195.707 28.7045 196.214 28.4886C196.722 28.2689 197.304 28.1591 197.959 28.1591C198.902 28.1591 199.644 28.3636 200.186 28.7727C200.728 29.178 201.086 29.7216 201.26 30.4034ZM203.298 37V28.2727H204.997V37H203.298ZM204.156 26.9261C203.861 26.9261 203.607 26.8277 203.395 26.6307C203.187 26.4299 203.082 26.1913 203.082 25.9148C203.082 25.6345 203.187 25.3958 203.395 25.1989C203.607 24.9981 203.861 24.8977 204.156 24.8977C204.452 24.8977 204.704 24.9981 204.912 25.1989C205.124 25.3958 205.23 25.6345 205.23 25.9148C205.23 26.1913 205.124 26.4299 204.912 26.6307C204.704 26.8277 204.452 26.9261 204.156 26.9261ZM210.959 37.1761C210.114 37.1761 209.387 36.9848 208.777 36.6023C208.171 36.2159 207.705 35.6837 207.379 35.0057C207.054 34.3277 206.891 33.5511 206.891 32.6761C206.891 31.7898 207.057 31.0076 207.391 30.3295C207.724 29.6477 208.194 29.1155 208.8 28.733C209.406 28.3504 210.12 28.1591 210.942 28.1591C211.605 28.1591 212.196 28.2822 212.714 28.5284C213.233 28.7708 213.652 29.1117 213.97 29.5511C214.292 29.9905 214.483 30.5038 214.544 31.0909H212.891C212.8 30.6818 212.591 30.3295 212.266 30.0341C211.944 29.7386 211.512 29.5909 210.97 29.5909C210.497 29.5909 210.082 29.7159 209.726 29.9659C209.374 30.2121 209.099 30.5644 208.902 31.0227C208.705 31.4773 208.607 32.0152 208.607 32.6364C208.607 33.2727 208.703 33.822 208.896 34.2841C209.089 34.7462 209.362 35.1042 209.714 35.358C210.071 35.6117 210.489 35.7386 210.97 35.7386C211.292 35.7386 211.584 35.6799 211.845 35.5625C212.11 35.4413 212.332 35.2689 212.51 35.0455C212.692 34.822 212.819 34.553 212.891 34.2386H214.544C214.483 34.803 214.3 35.3068 213.993 35.75C213.686 36.1932 213.275 36.5417 212.76 36.7955C212.249 37.0492 211.648 37.1761 210.959 37.1761Z" fill="#777B80" /><path d="M172 32.5L193.5 32.25L204.25 32.125L215 32" stroke="#777B80" /><circle cx="241" cy="31.5" r="8" stroke="#4AA147" stroke-width="2" /><path d="M239.528 33.285L237.632 31.389L237 32.021L239.528 34.5489L244.945 29.132L244.313 28.5L239.528 33.285Z" fill="#4AA147" stroke="#4AA147" /><path d="M259.278 37V25.3636H266.574V26.875H261.034V30.4205H266.193V31.9261H261.034V35.4886H266.642V37H259.278ZM270.482 31.8182V37H268.783V28.2727H270.413V29.6932H270.521C270.722 29.2311 271.036 28.8598 271.464 28.5795C271.896 28.2992 272.44 28.1591 273.095 28.1591C273.69 28.1591 274.211 28.2841 274.658 28.5341C275.105 28.7803 275.451 29.1477 275.697 29.6364C275.944 30.125 276.067 30.7292 276.067 31.4489V37H274.368V31.6534C274.368 31.0208 274.203 30.5265 273.874 30.1705C273.544 29.8106 273.091 29.6307 272.516 29.6307C272.122 29.6307 271.771 29.7159 271.464 29.8864C271.161 30.0568 270.921 30.3068 270.743 30.6364C270.569 30.9621 270.482 31.3561 270.482 31.8182ZM282.419 28.2727V29.6364H277.652V28.2727H282.419ZM278.93 26.1818H280.629V34.4375C280.629 34.767 280.679 35.0152 280.777 35.1818C280.875 35.3447 281.002 35.4564 281.158 35.517C281.317 35.5739 281.489 35.6023 281.675 35.6023C281.811 35.6023 281.93 35.5928 282.033 35.5739C282.135 35.5549 282.214 35.5398 282.271 35.5284L282.578 36.9318C282.48 36.9697 282.339 37.0076 282.158 37.0455C281.976 37.0871 281.749 37.1098 281.476 37.1136C281.029 37.1212 280.612 37.0417 280.226 36.875C279.839 36.7083 279.527 36.4508 279.288 36.1023C279.05 35.7538 278.93 35.3163 278.93 34.7898V26.1818ZM287.966 37.1761C287.106 37.1761 286.366 36.9924 285.744 36.625C285.127 36.2538 284.65 35.733 284.312 35.0625C283.979 34.3883 283.812 33.5985 283.812 32.6932C283.812 31.7992 283.979 31.0114 284.312 30.3295C284.65 29.6477 285.119 29.1155 285.722 28.733C286.328 28.3504 287.036 28.1591 287.847 28.1591C288.339 28.1591 288.816 28.2405 289.278 28.4034C289.741 28.5663 290.155 28.822 290.523 29.1705C290.89 29.5189 291.18 29.9716 291.392 30.5284C291.604 31.0814 291.71 31.7538 291.71 32.5455V33.1477H284.773V31.875H290.045C290.045 31.428 289.955 31.0322 289.773 30.6875C289.591 30.339 289.335 30.0644 289.006 29.8636C288.68 29.6629 288.297 29.5625 287.858 29.5625C287.381 29.5625 286.964 29.6799 286.608 29.9148C286.256 30.1458 285.983 30.4489 285.79 30.8239C285.6 31.1951 285.506 31.5985 285.506 32.0341V33.0284C285.506 33.6117 285.608 34.108 285.812 34.517C286.021 34.9261 286.311 35.2386 286.682 35.4545C287.053 35.6667 287.487 35.7727 287.983 35.7727C288.305 35.7727 288.598 35.7273 288.864 35.6364C289.129 35.5417 289.358 35.4015 289.551 35.2159C289.744 35.0303 289.892 34.8011 289.994 34.5284L291.602 34.8182C291.473 35.2917 291.242 35.7064 290.909 36.0625C290.58 36.4148 290.165 36.6894 289.665 36.8864C289.169 37.0795 288.602 37.1761 287.966 37.1761ZM293.595 37V28.2727H295.237V29.6591H295.328C295.487 29.1894 295.768 28.8201 296.169 28.5511C296.574 28.2784 297.033 28.142 297.544 28.142C297.65 28.142 297.775 28.1458 297.919 28.1534C298.067 28.161 298.182 28.1705 298.266 28.1818V29.8068C298.197 29.7879 298.076 29.767 297.902 29.7443C297.728 29.7178 297.554 29.7045 297.379 29.7045C296.978 29.7045 296.62 29.7898 296.305 29.9602C295.995 30.1269 295.749 30.3598 295.567 30.6591C295.385 30.9545 295.294 31.2917 295.294 31.6705V37H293.595ZM299.736 40.2727V28.2727H301.395V29.6875H301.537C301.635 29.5057 301.777 29.2955 301.963 29.0568C302.149 28.8182 302.406 28.6098 302.736 28.4318C303.065 28.25 303.501 28.1591 304.043 28.1591C304.747 28.1591 305.376 28.3371 305.929 28.6932C306.482 29.0492 306.916 29.5625 307.23 30.233C307.548 30.9034 307.707 31.7102 307.707 32.6534C307.707 33.5966 307.55 34.4053 307.236 35.0795C306.921 35.75 306.49 36.267 305.94 36.6307C305.391 36.9905 304.764 37.1705 304.06 37.1705C303.529 37.1705 303.096 37.0814 302.759 36.9034C302.425 36.7254 302.164 36.517 301.974 36.2784C301.785 36.0398 301.639 35.8277 301.537 35.642H301.435V40.2727H299.736ZM301.401 32.6364C301.401 33.25 301.49 33.7879 301.668 34.25C301.846 34.7121 302.103 35.0739 302.44 35.3352C302.777 35.5928 303.19 35.7216 303.679 35.7216C304.187 35.7216 304.611 35.5871 304.952 35.3182C305.293 35.0455 305.55 34.6761 305.724 34.2102C305.902 33.7443 305.991 33.2197 305.991 32.6364C305.991 32.0606 305.904 31.5436 305.73 31.0852C305.56 30.6269 305.302 30.2652 304.957 30C304.616 29.7348 304.19 29.6023 303.679 29.6023C303.187 29.6023 302.77 29.7292 302.429 29.983C302.092 30.2367 301.836 30.5909 301.662 31.0455C301.488 31.5 301.401 32.0303 301.401 32.6364ZM309.611 37V28.2727H311.253V29.6591H311.344C311.503 29.1894 311.783 28.8201 312.185 28.5511C312.59 28.2784 313.048 28.142 313.56 28.142C313.666 28.142 313.791 28.1458 313.935 28.1534C314.082 28.161 314.198 28.1705 314.281 28.1818V29.8068C314.213 29.7879 314.092 29.767 313.918 29.7443C313.743 29.7178 313.569 29.7045 313.395 29.7045C312.993 29.7045 312.635 29.7898 312.321 29.9602C312.01 30.1269 311.764 30.3598 311.582 30.6591C311.401 30.9545 311.31 31.2917 311.31 31.6705V37H309.611ZM315.751 37V28.2727H317.45V37H315.751ZM316.609 26.9261C316.314 26.9261 316.06 26.8277 315.848 26.6307C315.64 26.4299 315.536 26.1913 315.536 25.9148C315.536 25.6345 315.64 25.3958 315.848 25.1989C316.06 24.9981 316.314 24.8977 316.609 24.8977C316.905 24.8977 317.157 24.9981 317.365 25.1989C317.577 25.3958 317.683 25.6345 317.683 25.9148C317.683 26.1913 317.577 26.4299 317.365 26.6307C317.157 26.8277 316.905 26.9261 316.609 26.9261ZM326.276 30.4034L324.736 30.6761C324.671 30.4792 324.569 30.2917 324.429 30.1136C324.293 29.9356 324.107 29.7898 323.872 29.6761C323.637 29.5625 323.344 29.5057 322.991 29.5057C322.51 29.5057 322.109 29.6136 321.787 29.8295C321.465 30.0417 321.304 30.3163 321.304 30.6534C321.304 30.9451 321.412 31.1799 321.628 31.358C321.844 31.536 322.192 31.6818 322.673 31.7955L324.06 32.1136C324.863 32.2992 325.461 32.5852 325.855 32.9716C326.249 33.358 326.446 33.8598 326.446 34.4773C326.446 35 326.295 35.4659 325.991 35.875C325.692 36.2803 325.274 36.5985 324.736 36.8295C324.202 37.0606 323.582 37.1761 322.878 37.1761C321.901 37.1761 321.103 36.9678 320.486 36.5511C319.868 36.1307 319.49 35.5341 319.349 34.7614L320.991 34.5114C321.094 34.9394 321.304 35.2633 321.622 35.483C321.94 35.6989 322.355 35.8068 322.866 35.8068C323.423 35.8068 323.868 35.6913 324.202 35.4602C324.535 35.2254 324.702 34.9394 324.702 34.6023C324.702 34.3295 324.599 34.1004 324.395 33.9148C324.194 33.7292 323.885 33.589 323.469 33.4943L321.991 33.1705C321.177 32.9848 320.575 32.6894 320.185 32.2841C319.798 31.8788 319.605 31.3655 319.605 30.7443C319.605 30.2292 319.749 29.7784 320.037 29.392C320.325 29.0057 320.723 28.7045 321.23 28.4886C321.738 28.2689 322.319 28.1591 322.974 28.1591C323.918 28.1591 324.66 28.3636 325.202 28.7727C325.743 29.178 326.101 29.7216 326.276 30.4034ZM332.075 37.1761C331.215 37.1761 330.475 36.9924 329.854 36.625C329.236 36.2538 328.759 35.733 328.422 35.0625C328.089 34.3883 327.922 33.5985 327.922 32.6932C327.922 31.7992 328.089 31.0114 328.422 30.3295C328.759 29.6477 329.229 29.1155 329.831 28.733C330.437 28.3504 331.145 28.1591 331.956 28.1591C332.448 28.1591 332.926 28.2405 333.388 28.4034C333.85 28.5663 334.265 28.822 334.632 29.1705C335 29.5189 335.289 29.9716 335.501 30.5284C335.714 31.0814 335.82 31.7538 335.82 32.5455V33.1477H328.882V31.875H334.155C334.155 31.428 334.064 31.0322 333.882 30.6875C333.7 30.339 333.445 30.0644 333.115 29.8636C332.789 29.6629 332.407 29.5625 331.967 29.5625C331.49 29.5625 331.073 29.6799 330.717 29.9148C330.365 30.1458 330.092 30.4489 329.899 30.8239C329.71 31.1951 329.615 31.5985 329.615 32.0341V33.0284C329.615 33.6117 329.717 34.108 329.922 34.517C330.13 34.9261 330.42 35.2386 330.791 35.4545C331.162 35.6667 331.596 35.7727 332.092 35.7727C332.414 35.7727 332.708 35.7273 332.973 35.6364C333.238 35.5417 333.467 35.4015 333.661 35.2159C333.854 35.0303 334.001 34.8011 334.104 34.5284L335.712 34.8182C335.583 35.2917 335.352 35.7064 335.018 36.0625C334.689 36.4148 334.274 36.6894 333.774 36.8864C333.278 37.0795 332.712 37.1761 332.075 37.1761Z" fill="#0565FF" /></svg>