<svg xmlns="http://www.w3.org/2000/svg" width="20" height="20" viewBox="0 0 20 20"><path fill-rule="nonzero" d="M12.5 5c.69643 0 1.1773.43112 1.24244 1.0932L13.75 6.25v12.5c0 .69643-.43112 1.1773-1.0932 1.24244L12.5 20h-10c-.69643 0-1.1773-.43112-1.24244-1.0932L1.25 18.75V6.25c0-.69643.43112-1.1773 1.0932-1.24244L2.5 5h10zm5-5c.69643 0 1.1773.43112 1.24244 1.0932L18.75 1.25v14.375c0 .30682-.2211.56201-.51266.61493L18.125 16.25h-1.25c-.30682 0-.56201-.2211-.61493-.51266L16.25 15.625V2.5H5.625c-.30682 0-.56201-.2211-.61493-.51266L5 1.875V.625c0-.30682.2211-.56201.51266-.61493L5.625 0H17.5z"/></svg>