<svg width="16" height="16" viewBox="0 0 16 16" fill="none" xmlns="http://www.w3.org/2000/svg">
<g clip-path="url(#clip0_245_22884)">
<path d="M13.3333 6H7.33333C6.59695 6 6 6.59695 6 7.33333V13.3333C6 14.0697 6.59695 14.6667 7.33333 14.6667H13.3333C14.0697 14.6667 14.6667 14.0697 14.6667 13.3333V7.33333C14.6667 6.59695 14.0697 6 13.3333 6Z" stroke="#61656F" stroke-linecap="round"/>
<path d="M3.33337 10H2.66671C2.31309 10 1.97395 9.85953 1.7239 9.60948C1.47385 9.35943 1.33337 9.02029 1.33337 8.66667V2.66667C1.33337 2.31305 1.47385 1.97391 1.7239 1.72386C1.97395 1.47381 2.31309 1.33334 2.66671 1.33334H8.66671C9.02033 1.33334 9.35947 1.47381 9.60952 1.72386C9.85956 1.97391 10 2.31305 10 2.66667V3.33334" stroke="#61656F" stroke-linecap="round"/>
</g>
<defs>
<clipPath id="clip0_245_22884">
<rect width="16" height="16" fill="white"/>
</clipPath>
</defs>
</svg>
