<svg width="85" height="32" viewBox="0 0 85 32" fill="none" xmlns="http://www.w3.org/2000/svg">
<g clip-path="url(#clip0_245_22719)">
<path d="M0.5 4C0.5 2.067 2.067 0.5 4 0.5H81C82.933 0.5 84.5 2.067 84.5 4V28C84.5 29.933 82.933 31.5 81 31.5H4C2.067 31.5 0.5 29.933 0.5 28V4Z" fill="white" stroke="#D2DDEC"/>
<path d="M42.1953 14.0291C42.1461 13.5921 41.9429 13.2536 41.5859 13.0135C41.2289 12.7704 40.7796 12.6488 40.2379 12.6488C39.8501 12.6488 39.5147 12.7103 39.2315 12.8335C38.9484 12.9535 38.7283 13.1197 38.5714 13.332C38.4175 13.5413 38.3406 13.7798 38.3406 14.0476C38.3406 14.2723 38.3929 14.4661 38.4975 14.6293C38.6052 14.7924 38.7453 14.9293 38.9176 15.0401C39.093 15.1478 39.2808 15.2386 39.4808 15.3125C39.6809 15.3833 39.8732 15.4418 40.0579 15.4879L40.9812 15.728C41.2828 15.8018 41.5921 15.9019 41.9091 16.0281C42.2261 16.1542 42.52 16.3204 42.7908 16.5266C43.0617 16.7328 43.2802 16.9883 43.4464 17.293C43.6156 17.5977 43.7003 17.9624 43.7003 18.3871C43.7003 18.9226 43.5618 19.3981 43.2848 19.8136C43.0109 20.229 42.6123 20.5568 42.0891 20.7969C41.569 21.0369 40.9396 21.157 40.201 21.157C39.4931 21.157 38.8807 21.0446 38.3636 20.82C37.8466 20.5953 37.4419 20.2768 37.1495 19.8643C36.8571 19.4489 36.6955 18.9564 36.6648 18.3871H38.0959C38.1236 18.7287 38.2344 19.0134 38.4283 19.2411C38.6252 19.4658 38.8761 19.6335 39.1808 19.7443C39.4885 19.852 39.8255 19.9059 40.1918 19.9059C40.5949 19.9059 40.9535 19.8428 41.2674 19.7166C41.5844 19.5874 41.8337 19.4089 42.0153 19.1811C42.1969 18.9503 42.2876 18.681 42.2876 18.3732C42.2876 18.0932 42.2076 17.8639 42.0476 17.6854C41.8906 17.5069 41.6767 17.3591 41.4059 17.2422C41.1381 17.1252 40.835 17.0221 40.4964 16.9329L39.3793 16.6282C38.6222 16.422 38.022 16.1188 37.5788 15.7188C37.1387 15.3187 36.9187 14.7893 36.9187 14.1307C36.9187 13.5859 37.0664 13.1104 37.3619 12.7042C37.6573 12.2979 38.0574 11.9825 38.5621 11.7578C39.0669 11.5301 39.6362 11.4162 40.2702 11.4162C40.9104 11.4162 41.4751 11.5285 41.9645 11.7532C42.4569 11.9779 42.8447 12.2872 43.1278 12.6811C43.411 13.072 43.5587 13.5213 43.571 14.0291H42.1953ZM46.5744 16.7898V21H45.1941V11.5455H46.556V15.0632H46.6437C46.8099 14.6816 47.0638 14.3784 47.4054 14.1538C47.747 13.9291 48.1933 13.8168 48.7442 13.8168C49.2305 13.8168 49.6552 13.9168 50.0183 14.1168C50.3846 14.3169 50.6677 14.6154 50.8678 15.0124C51.0709 15.4064 51.1725 15.8988 51.1725 16.4897V21H49.7921V16.6559C49.7921 16.1358 49.6583 15.7326 49.3905 15.4464C49.1227 15.1571 48.7503 15.0124 48.2733 15.0124C47.9471 15.0124 47.6547 15.0817 47.3962 15.2202C47.1407 15.3587 46.9392 15.5618 46.7914 15.8295C46.6468 16.0942 46.5744 16.4143 46.5744 16.7898ZM54.978 21.157C54.5287 21.157 54.1224 21.0739 53.7593 20.9077C53.3961 20.7384 53.1083 20.4937 52.896 20.1737C52.6867 19.8536 52.582 19.4612 52.582 18.9964C52.582 18.5964 52.659 18.267 52.8129 18.0085C52.9668 17.75 53.1745 17.5453 53.4361 17.3945C53.6977 17.2437 53.9901 17.1299 54.3132 17.0529C54.6364 16.976 54.9657 16.9175 55.3012 16.8775C55.7259 16.8282 56.0706 16.7882 56.3352 16.7575C56.5999 16.7236 56.7923 16.6697 56.9123 16.5959C57.0323 16.522 57.0923 16.402 57.0923 16.2358V16.2035C57.0923 15.8003 56.9785 15.4879 56.7507 15.2663C56.5261 15.0447 56.1906 14.9339 55.7443 14.9339C55.2796 14.9339 54.9134 15.037 54.6456 15.2433C54.3809 15.4464 54.1978 15.6726 54.0963 15.9219L52.799 15.6264C52.9529 15.1955 53.1776 14.8478 53.473 14.5831C53.7716 14.3153 54.1147 14.1214 54.5025 14.0014C54.8903 13.8783 55.2981 13.8168 55.7259 13.8168C56.009 13.8168 56.3091 13.8506 56.6261 13.9183C56.9462 13.983 57.2447 14.103 57.5217 14.2784C57.8017 14.4538 58.031 14.7047 58.2095 15.0309C58.388 15.354 58.4773 15.7741 58.4773 16.2912V21H57.1293V20.0305H57.0739C56.9846 20.209 56.8508 20.3845 56.6722 20.5568C56.4937 20.7292 56.2645 20.8723 55.9844 20.9862C55.7043 21.1 55.3689 21.157 54.978 21.157ZM55.2781 20.049C55.6597 20.049 55.9859 19.9736 56.2568 19.8228C56.5307 19.672 56.7384 19.475 56.88 19.2319C57.0246 18.9857 57.097 18.7225 57.097 18.4425V17.5284C57.0477 17.5777 56.9523 17.6238 56.8107 17.6669C56.6722 17.7069 56.5137 17.7423 56.3352 17.7731C56.1567 17.8008 55.9829 17.8269 55.8136 17.8516C55.6443 17.8731 55.5027 17.8916 55.3889 17.907C55.1211 17.9408 54.8764 17.9978 54.6548 18.0778C54.4363 18.1578 54.2609 18.2732 54.1286 18.424C53.9993 18.5717 53.9347 18.7687 53.9347 19.0149C53.9347 19.3565 54.0609 19.6151 54.3132 19.7905C54.5656 19.9628 54.8872 20.049 55.2781 20.049ZM60.2158 21V13.9091H61.55V15.0355H61.6238C61.7531 14.6539 61.9808 14.3538 62.3071 14.1353C62.6364 13.9137 63.0088 13.8029 63.4243 13.8029C63.5104 13.8029 63.612 13.806 63.7289 13.8121C63.849 13.8183 63.9428 13.826 64.0105 13.8352V15.1555C63.9552 15.1402 63.8567 15.1232 63.7151 15.1048C63.5735 15.0832 63.4319 15.0724 63.2904 15.0724C62.9641 15.0724 62.6733 15.1417 62.4179 15.2802C62.1655 15.4156 61.9654 15.6049 61.8177 15.848C61.67 16.0881 61.5961 16.362 61.5961 16.6697V21H60.2158ZM67.9073 21.1431C67.2086 21.1431 66.607 20.9938 66.1022 20.6953C65.6006 20.3937 65.2128 19.9705 64.9389 19.4258C64.668 18.878 64.5326 18.2363 64.5326 17.5007C64.5326 16.7744 64.668 16.1342 64.9389 15.5803C65.2128 15.0263 65.5944 14.5939 66.0838 14.283C66.5762 13.9722 67.1517 13.8168 67.8103 13.8168C68.2104 13.8168 68.5982 13.8829 68.9737 14.0153C69.3491 14.1476 69.6861 14.3554 69.9847 14.6385C70.2832 14.9216 70.5187 15.2894 70.691 15.7418C70.8633 16.1912 70.9495 16.7375 70.9495 17.3807V17.87H65.3128V16.8359H69.5969C69.5969 16.4728 69.523 16.1512 69.3753 15.8711C69.2276 15.5879 69.0198 15.3648 68.7521 15.2017C68.4874 15.0386 68.1766 14.957 67.8195 14.957C67.4318 14.957 67.0932 15.0524 66.8039 15.2433C66.5177 15.431 66.2961 15.6772 66.1392 15.9819C65.9853 16.2835 65.9083 16.6113 65.9083 16.9652V17.7731C65.9083 18.247 65.9914 18.6502 66.1576 18.9826C66.3269 19.315 66.5623 19.5689 66.8639 19.7443C67.1655 19.9167 67.5179 20.0028 67.9211 20.0028C68.1827 20.0028 68.4212 19.9659 68.6367 19.892C68.8521 19.8151 69.0383 19.7012 69.1953 19.5504C69.3522 19.3996 69.4722 19.2134 69.5553 18.9918L70.8618 19.2273C70.7572 19.612 70.5694 19.949 70.2986 20.2383C70.0308 20.5245 69.6938 20.7476 69.2876 20.9077C68.8844 21.0646 68.4243 21.1431 67.9073 21.1431Z" fill="#282D38"/>
<path fill-rule="evenodd" clip-rule="evenodd" d="M26 11C26 12.1046 25.1046 13 24 13C23.3132 13 22.7073 12.6538 22.3471 12.1264L16.9069 15.3952C16.9674 15.586 17 15.7892 17 16C17 16.095 16.9934 16.1885 16.9806 16.2799L22.5476 19.625C22.9122 19.2401 23.428 19 24 19C25.1046 19 26 19.8954 26 21C26 22.1046 25.1046 23 24 23C22.8954 23 22 22.1046 22 21C22 20.8275 22.0218 20.6601 22.0629 20.5004L16.5908 17.2124C16.2254 17.6911 15.6488 18 15 18C13.8954 18 13 17.1046 13 16C13 14.8954 13.8954 14 15 14C15.5328 14 16.0169 14.2083 16.3754 14.548L22.0067 11.1644C22.0022 11.1102 22 11.0554 22 11C22 9.89543 22.8954 9 24 9C25.1046 9 26 9.89543 26 11Z" fill="#61656F"/>
</g>
<defs>
<clipPath id="clip0_245_22719">
<rect width="85" height="32" fill="white"/>
</clipPath>
</defs>
</svg>
