<svg width="14" height="4" viewBox="0 0 14 4" fill="none" xmlns="http://www.w3.org/2000/svg">
<path d="M1.99967 0.333374C1.08301 0.333374 0.333008 1.08337 0.333008 2.00004C0.333008 2.91671 1.08301 3.66671 1.99967 3.66671C2.91634 3.66671 3.66634 2.91671 3.66634 2.00004C3.66634 1.08337 2.91634 0.333374 1.99967 0.333374ZM11.9997 0.333374C11.083 0.333374 10.333 1.08337 10.333 2.00004C10.333 2.91671 11.083 3.66671 11.9997 3.66671C12.9163 3.66671 13.6663 2.91671 13.6663 2.00004C13.6663 1.08337 12.9163 0.333374 11.9997 0.333374ZM6.99967 0.333374C6.08301 0.333374 5.33301 1.08337 5.33301 2.00004C5.33301 2.91671 6.08301 3.66671 6.99967 3.66671C7.91634 3.66671 8.66634 2.91671 8.66634 2.00004C8.66634 1.08337 7.91634 0.333374 6.99967 0.333374Z" fill="#8092AC"/>
</svg>
