<svg xmlns="http://www.w3.org/2000/svg" viewBox="0 0 32 32">
  <title>Kissflow Documentation</title>
  <path fill="#ea3d95" d="M15.9 15.3C10.7 9.1 8.3 5.2 10.5 3.1c2.2-2.1 5.8.9 7 10.7Z"/>
  <path fill="#f6aa2c" d="M16.7 15.6C18 8.7 20.7 5.8 23.2 7.2c2.5 1.5.2 5.9-5.7 9.7Z"/>
  <path fill="#4f98e9" d="M17.2 16.5c6.7-2.6 10.4-1.8 11.1 1 0 2.9-4.8 3.5-10.8.3Z"/>
  <path fill="#65bd56" d="M16.5 17.1c4.1 5.4 4.1 9.6 1.4 10.5-2.8.9-4.2-3.3-2.1-9.7Z"/>
  <path fill="#9d5ac7" d="M15.6 16.9c-4 5.8-7.8 6.9-9.6 4.6-1.7-2.3 1.7-5.1 8.8-5.4Z"/>
  <circle cx="16.4" cy="16.4" r="2.8" fill="#1d1d1f"/>
</svg>
