<svg width="31" height="20" viewBox="0 0 31 20" fill="none" xmlns="http://www.w3.org/2000/svg">
<path d="M13.1367 8.19922C13.1003 7.85807 12.9466 7.59245 12.6758 7.40234C12.4076 7.21224 12.0586 7.11719 11.6289 7.11719C11.3268 7.11719 11.0677 7.16276 10.8516 7.25391C10.6354 7.34505 10.4701 7.46875 10.3555 7.625C10.2409 7.78125 10.1823 7.95964 10.1797 8.16016C10.1797 8.32682 10.2174 8.47135 10.293 8.59375C10.3711 8.71615 10.4766 8.82031 10.6094 8.90625C10.7422 8.98958 10.8893 9.0599 11.0508 9.11719C11.2122 9.17448 11.375 9.22266 11.5391 9.26172L12.2891 9.44922C12.5911 9.51953 12.8815 9.61458 13.1602 9.73437C13.4414 9.85417 13.6927 10.0052 13.9141 10.1875C14.138 10.3698 14.3151 10.5898 14.4453 10.8477C14.5755 11.1055 14.6406 11.4076 14.6406 11.7539C14.6406 12.2227 14.5208 12.6354 14.2813 12.9922C14.0417 13.3464 13.6953 13.6237 13.2422 13.8242C12.7917 14.0221 12.2461 14.1211 11.6055 14.1211C10.9831 14.1211 10.4427 14.0247 9.98438 13.832C9.52865 13.6393 9.17188 13.3581 8.91406 12.9883C8.65885 12.6185 8.52083 12.168 8.5 11.6367H9.92578C9.94661 11.9154 10.0326 12.1471 10.1836 12.332C10.3346 12.5169 10.5313 12.6549 10.7734 12.7461C11.0182 12.8372 11.2917 12.8828 11.5938 12.8828C11.9089 12.8828 12.1849 12.8359 12.4219 12.7422C12.6615 12.6458 12.849 12.513 12.9844 12.3437C13.1198 12.1719 13.1888 11.9714 13.1914 11.7422C13.1888 11.5339 13.1276 11.362 13.0078 11.2266C12.888 11.0885 12.7201 10.974 12.5039 10.8828C12.2904 10.7891 12.0404 10.7057 11.7539 10.6328L10.8438 10.3984C10.1849 10.2292 9.66406 9.97266 9.28125 9.62891C8.90104 9.28255 8.71094 8.82292 8.71094 8.25C8.71094 7.77865 8.83854 7.36589 9.09375 7.01172C9.35156 6.65755 9.70182 6.38281 10.1445 6.1875C10.5872 5.98958 11.0885 5.89062 11.6484 5.89062C12.2161 5.89062 12.7135 5.98958 13.1406 6.1875C13.5703 6.38281 13.9076 6.65495 14.1523 7.00391C14.3971 7.35026 14.5234 7.7487 14.5312 8.19922H13.1367ZM16.8311 14H15.2842L18.1006 6H19.8896L22.71 14H21.1631L19.0264 7.64062H18.9639L16.8311 14ZM16.8818 10.8633H21.1006V12.0273H16.8818V10.8633Z" fill="#61656C"/>
<rect x="0.5" y="0.5" width="30" height="19" rx="3.5" stroke="#D2DDEC"/>
</svg>
