<?xml version="1.0" encoding="UTF-8"?>
<svg width="15px" height="15px" viewBox="0 0 15 15" version="1.1" xmlns="http://www.w3.org/2000/svg" xmlns:xlink="http://www.w3.org/1999/xlink">
    <title>grey tick</title>
    <g id="grey-tick" stroke="none" stroke-width="1" fill="none" fill-rule="evenodd">
        <path d="M7.5,0 C3.35786438,0 0,3.35786438 0,7.5 C0,11.6421356 3.35786438,15 7.5,15 C11.6421356,15 15,11.6421356 15,7.5 C15,5.51087633 14.2098237,3.60322198 12.8033009,2.19669914 C11.396778,0.7901763 9.4891237,0 7.5,0 Z M10.725,5.7075 L7.2975,10.2075 C7.15590554,10.3914352 6.93712249,10.4994421 6.705,10.5000216 C6.47416474,10.5012435 6.25561659,10.396119 6.1125,10.215 L4.2825,7.8825 C4.11771125,7.67082014 4.07837002,7.38730613 4.17929578,7.13875495 C4.28022154,6.89020377 4.50608127,6.71437626 4.77179578,6.67750495 C5.0375103,6.64063363 5.30271125,6.74832014 5.4675,6.96 L6.69,8.52 L9.525,4.77 C9.688449,4.55564063 9.9538415,4.44476342 10.2212066,4.47913473 C10.4885718,4.51350604 10.7172905,4.68790406 10.8212066,4.93663474 C10.9251228,5.18536542 10.888449,5.47064065 10.725,5.685 L10.725,5.7075 Z" id="Shape" fill="#D5DCE1"></path>
    </g>
</svg>