<?xml version="1.0" encoding="UTF-8"?>
<svg width="16px" height="16px" viewBox="0 0 16 16" version="1.1" xmlns="http://www.w3.org/2000/svg" xmlns:xlink="http://www.w3.org/1999/xlink">
    <title>gear</title>
    <g id="Page-1" stroke="none" stroke-width="1" fill="none" fill-rule="evenodd">
        <g id="1-Notification---Dark" transform="translate(-410.000000, -27.000000)" fill="#61656F" fill-rule="nonzero">
            <g id="Notifications">
                <g id="Title" transform="translate(0.000000, 22.000000)">
                    <g id="gear" transform="translate(410.000000, 5.000000)">
                        <path d="M9.5,0 C9.77614237,0 10,0.223857625 10,0.5 L10,0.5 L10,2.349 L10.2008014,2.42216075 C10.7540112,2.63981776 11.2702446,2.93822634 11.7335017,3.3068429 L11.7335017,3.3068429 L11.895,3.442 L13.4949365,2.51802394 C13.7075132,2.39525123 13.9727818,2.44633884 14.1260891,2.62718212 L14.1260891,2.62718212 L14.1780095,2.7009945 L15.6780095,5.2989945 C15.8160766,5.53812668 15.7341593,5.84390665 15.4950372,5.98199123 L15.4950372,5.98199123 L13.893,6.906 L13.9319279,7.12157267 C13.9619308,7.31688788 13.9821841,7.51194206 13.9923527,7.70711175 L13.9923527,7.70711175 L14,8 C14,8.29100523 13.9771835,8.582334 13.9327888,8.87537485 L13.9327888,8.87537485 L13.894,9.093 L15.4970372,10.0190088 C15.7095901,10.1417506 15.797932,10.3969925 15.7179704,10.6201478 L15.7179704,10.6201478 L15.6800095,10.7020055 L14.1800095,13.3000055 C14.0419443,13.5391345 13.7361761,13.6210757 13.4970344,13.4830326 L13.4970344,13.4830326 L11.895,12.558 L11.7334255,12.6942238 C11.2699253,13.0624122 10.7541876,13.360577 10.2016256,13.5783943 L10.2016256,13.5783943 L10.001,13.651 L10.001,15.5 C10.001,15.7454599 9.82412484,15.9496084 9.59087563,15.9919443 L9.59087563,15.9919443 L9.501,16 L6.501,16 C6.22485763,16 6.001,15.7761424 6.001,15.5 L6.001,15.5 L6.001,13.65 L5.80019862,13.5778392 C5.24698878,13.3601822 4.73075536,13.0617737 4.2674983,12.6931571 L4.2674983,12.6931571 L4.105,12.558 L2.50496557,13.4820326 C2.29239517,13.6047376 2.02718163,13.5536278 1.873902,13.3728072 L1.873902,13.3728072 L1.82199047,13.2990055 L0.321990474,10.7010055 C0.183923394,10.4618733 0.265840734,10.1560934 0.504962811,10.0180088 L0.504962811,10.0180088 L2.106,9.093 L2.06811736,8.87842089 C2.03810936,8.68300253 2.01783765,8.48781248 2.00765739,8.29267908 L2.00765739,8.29267908 L2,8 C2,7.70693098 2.02306767,7.41454548 2.06807213,7.12157267 L2.06807213,7.12157267 L2.106,6.906 L0.504962811,5.98199123 C0.292409853,5.85924938 0.204068046,5.60400747 0.284029567,5.38085221 L0.284029567,5.38085221 L0.321990474,5.2989945 L1.82199047,2.7009945 C1.96007777,2.46182731 2.26591475,2.37990464 2.50506346,2.51802394 L2.50506346,2.51802394 L4.104,3.442 L4.26696702,3.30684689 C4.7303086,2.93842355 5.24631754,2.63995417 5.79907744,2.42188108 L5.79907744,2.42188108 L6,2.348 L6,0.5 C6,0.254540111 6.17687516,0.0503916296 6.41012437,0.00805566941 L6.41012437,0.00805566941 L6.5,0 Z M9,1 L7,1 L7,2.712 C7,2.90762482 6.88636614,3.08244629 6.71387193,3.16398422 L6.71387193,3.16398422 L6.63650184,3.19300649 C5.83711669,3.41985904 5.11066246,3.84081684 4.51822926,4.41579852 C4.35780674,4.57149542 4.1135246,4.60178201 3.91993654,4.48997606 L3.91993654,4.48997606 L2.438,3.634 L1.438,5.366 L2.92203719,6.22300877 C3.0912136,6.32070219 3.18577759,6.50617779 3.17041976,6.6961054 L3.17041976,6.6961054 L3.15700498,6.77753257 C3.05338426,7.19105601 3,7.59641446 3,8 C3,8.40296352 3.053494,8.80938194 3.15700498,9.22246743 C3.21127318,9.43903771 3.11538166,9.6653416 2.92203719,9.77699123 L2.92203719,9.77699123 L1.438,10.633 L2.438,12.365 L3.92103443,11.5099674 C4.08706434,11.4141276 4.2903396,11.4227893 4.44602391,11.5253912 L4.44602391,11.5253912 L4.5195074,11.5844716 C5.11102752,12.1594586 5.83725107,12.5800505 6.63685864,12.8058114 C6.85225705,12.866627 7.001,13.0631809 7.001,13.287 L7.001,13.287 L7.001,15 L9.001,15 L9.001,13.288 C9.001,13.0923272 9.11468852,12.9174736 9.28724377,12.835961 L9.28724377,12.835961 L9.36464028,12.8069532 C10.163871,12.5803996 10.8896498,12.1599308 11.4830575,11.5849234 C11.6434679,11.4294869 11.8875168,11.3993002 12.0809656,11.5109674 L12.0809656,11.5109674 L13.563,12.366 L14.563,10.634 L13.0799628,9.77799123 C12.914914,9.68268133 12.8208128,9.50376226 12.8306635,9.31859524 L12.8306635,9.31859524 L12.8444044,9.22584923 C12.9469817,8.80779838 13,8.40132462 13,8 C13,7.59641446 12.9466157,7.19105601 12.842995,6.77753257 C12.7887268,6.56096229 12.8846183,6.3346584 13.0779628,6.22300877 L13.0779628,6.22300877 L14.561,5.366 L13.561,3.634 L12.0800635,4.48997606 C11.9140241,4.58587137 11.7107058,4.57723301 11.5549904,4.47461825 L11.5549904,4.47461825 L11.4814926,4.41552837 C10.8899725,3.84054142 10.1637489,3.41994953 9.36414136,3.19418856 C9.14874295,3.13337304 9,2.93681913 9,2.713 L9,2.713 L9,1 Z M8,5 C9.65685425,5 11,6.34314575 11,8 C11,9.65685425 9.65685425,11 8,11 C6.34314575,11 5,9.65685425 5,8 C5,6.34314575 6.34314575,5 8,5 Z M8,6 C6.8954305,6 6,6.8954305 6,8 C6,9.1045695 6.8954305,10 8,10 C9.1045695,10 10,9.1045695 10,8 C10,6.8954305 9.1045695,6 8,6 Z" id="Combined-Shape"></path>
                    </g>
                </g>
            </g>
        </g>
    </g>
</svg>