<svg width="14" height="14" viewBox="0 0 14 14" fill="none" xmlns="http://www.w3.org/2000/svg">
<path fill-rule="evenodd" clip-rule="evenodd" d="M6.66687 1.16658C3.6293 1.16658 1.16687 3.62901 1.16687 6.66658C1.16687 9.70415 3.6293 12.1666 6.66687 12.1666C9.70444 12.1666 12.1669 9.70415 12.1669 6.66658C12.1669 3.62901 9.70444 1.16658 6.66687 1.16658ZM0.16687 6.66658C0.16687 3.07673 3.07702 0.16658 6.66687 0.16658C10.2567 0.16658 13.1669 3.07673 13.1669 6.66658C13.1669 8.28165 12.5778 9.75915 11.6029 10.8959L13.6868 12.9799C13.882 13.1751 13.882 13.4917 13.6868 13.687C13.4915 13.8822 13.1749 13.8822 12.9797 13.687L10.8957 11.603C9.75898 12.5777 8.28169 13.1666 6.66687 13.1666C3.07702 13.1666 0.16687 10.2564 0.16687 6.66658ZM4.66687 6.16658C4.39073 6.16658 4.16687 6.39044 4.16687 6.66658C4.16687 6.94272 4.39073 7.16658 4.66687 7.16658H8.66687C8.94301 7.16658 9.16687 6.94272 9.16687 6.66658C9.16687 6.39044 8.94301 6.16658 8.66687 6.16658H4.66687Z" fill="#545C6B"/>
</svg>
