<svg width="32" height="32" viewBox="0 0 32 32" fill="none" xmlns="http://www.w3.org/2000/svg">
<rect x="0.5" y="0.5" width="31" height="31" rx="3.5" fill="white" stroke="#D2DDEC"/>
<path fill-rule="evenodd" clip-rule="evenodd" d="M16.1999 11C20.1147 11 23.1799 15.323 23.3085 15.507C23.4305 15.6815 23.4305 15.9185 23.3085 16.0931C23.1799 16.277 20.1147 20.6 16.1999 20.6C12.2852 20.6 9.21988 16.277 9.09138 16.093C8.96954 15.9183 8.96954 15.6815 9.09138 15.5069C9.21988 15.323 12.2852 11 16.1999 11ZM10.5793 15.8003C11.3186 16.7383 13.3164 19.181 16.2 19.181C19.0898 19.181 21.1404 16.7391 21.8787 15.8003C21.1391 14.8618 19.0835 12.3681 16.2 12.3681C13.3102 12.3681 11.3176 14.8615 10.5793 15.8003Z" fill="#61656F"/>
<circle cx="16.2" cy="15.8" r="2.4" fill="#61656F"/>
</svg>
