<?xml version="1.0" encoding="UTF-8"?>
<svg width="16px" height="16px" viewBox="0 0 16 16" version="1.1" xmlns="http://www.w3.org/2000/svg" xmlns:xlink="http://www.w3.org/1999/xlink">
    <title></title>
    <g id="Page-1" stroke="none" stroke-width="1" fill="none" fill-rule="evenodd">
        <g id="Form---1" transform="translate(-283.000000, -124.000000)" fill="#61656F" fill-rule="nonzero">
            <g id="Navigation" transform="translate(16.000000, 44.000000)">
                <g id="Group" transform="translate(217.000000, 71.000000)">
                    <path d="M62.5,25 C62.7762451,25 63,24.7762451 63,24.5 L63,21 L65.5,21 C65.7762451,21 66,20.7762451 66,20.5 L66,17.5 C66,16.1193848 64.8806152,15 63.5,15 L63,15 L63,12.4140625 C63,12.1487427 62.8946838,11.8946838 62.7071838,11.7068787 L60.2928162,9.29281616 C60.1053162,9.10531616 59.8509521,9 59.5856323,9 L53.9525146,9 C53.426239,9 53,9.44781494 53,10 L53,15 L52.5,15 C51.1193848,15 50,16.1193848 50,17.5 L50,20.5 C50,20.7762451 50.2237549,21 50.5,21 L53,21 L53,24.5 C53,24.7762451 53.2237549,25 53.5,25 L62.5,25 Z M62,15 L54.0006104,15 L54.0037537,10 L59,10 L59,12 C59,12.5521851 59.4478149,13 60,13 L62,13 L62,15 Z M61.5859375,12 L60,12 L60,10.4140625 L61.5859375,12 Z M65,20 L51,20 L51,17.5 C51,16.672821 51.672821,16 52.5,16 L63.5,16 C64.327179,16 65,16.672821 65,17.5 L65,20 Z M62.5,18.75 C62.9140625,18.75 63.25,18.4140625 63.25,18 C63.25,17.5856323 62.9140625,17.25 62.5,17.25 C62.0859375,17.25 61.75,17.5856323 61.75,18 C61.75,18.4140625 62.0859375,18.75 62.5,18.75 Z M62,24 L54,24 L54,21 L62,21 L62,24 Z" id=""></path>
                </g>
            </g>
        </g>
    </g>
</svg>