<?xml version="1.0" encoding="UTF-8"?>
<svg width="12px" height="12px" viewBox="0 0 12 12" version="1.1" xmlns="http://www.w3.org/2000/svg" xmlns:xlink="http://www.w3.org/1999/xlink">
    <title>share</title>
    <g id="Process-metrics" stroke="none" stroke-width="1" fill="none" fill-rule="evenodd">
        <g id="Process-metrics---Inprogress" transform="translate(-1203.000000, -94.000000)" fill="#61656C" fill-rule="nonzero">
            <g id="Header">
                <g id="Project-title" transform="translate(32.000000, 76.000000)">
                    <g id="Action-Buttons" transform="translate(912.000000, 8.000000)">
                        <g id="Stacked-Group">
                            <g id="Report" transform="translate(247.000000, 0.000000)">
                                <g id="Padding-Group-2">
                                    <g id="Stacked-Group" transform="translate(12.000000, 6.000000)">
                                        <g id="Reports">
                                            <g id="share" transform="translate(0.000000, 4.000000)">
                                                <path d="M10.6249695,1.99996948 C10.6249695,2.89746094 9.89749146,3.62503052 9,3.62503052 C8.10250854,3.62503052 7.37503052,2.89746094 7.37503052,1.99996948 C7.37503052,1.10256959 8.10250854,0.375 9,0.375 C9.89749146,0.375 10.6249695,1.10256959 10.6249695,1.99996948 L10.6249695,1.99996948 Z" id="Path"></path>
                                                <path d="M9,4.00003052 C7.89697266,4.00003052 7.00003052,3.10299682 7.00003052,1.99996948 C7.00003052,0.897033703 7.89697266,0 9,0 C10.1030273,0 10.9999695,0.897033703 10.9999695,1.99996948 C10.9999695,3.10299682 10.1030273,4.00003052 9,4.00003052 Z M9,0.75 C8.31051635,0.75 7.75003052,1.31103516 7.75003052,1.99996948 C7.75003052,2.68899537 8.31051635,3.25003052 9,3.25003052 C9.68948365,3.25003052 10.2499695,2.68899537 10.2499695,1.99996948 C10.2499695,1.31103516 9.68948365,0.75 9,0.75 Z" id="Shape"></path>
                                                <path d="M10.6249695,10.0000305 C10.6249695,10.8974304 9.89749146,11.625 9,11.625 C8.10250854,11.625 7.37503052,10.8974304 7.37503052,10.0000305 C7.37503052,9.10253906 8.10250854,8.37496948 9,8.37496948 C9.89749146,8.37496948 10.6249695,9.10253906 10.6249695,10.0000305 L10.6249695,10.0000305 Z" id="Path"></path>
                                                <path d="M9,12 C7.89697266,12 7.00003052,11.1029663 7.00003052,10.0000305 C7.00003052,8.89700318 7.89697266,7.99996948 9,7.99996948 C10.1030273,7.99996948 10.9999695,8.89700318 10.9999695,10.0000305 C10.9999695,11.1029663 10.1030273,12 9,12 Z M9,8.74996948 C8.31051635,8.74996948 7.75003052,9.31100463 7.75003052,10.0000305 C7.75003052,10.6889648 8.31051635,11.25 9,11.25 C9.68948365,11.25 10.2499695,10.6889648 10.2499695,10.0000305 C10.2499695,9.31100463 9.68948365,8.74996948 9,8.74996948 L9,8.74996948 Z" id="Shape"></path>
                                                <path d="M3.62503052,6 C3.62503052,6.89749146 2.89746094,7.62496948 1.99996948,7.62496948 C1.10256959,7.62496948 0.375,6.89749146 0.375,6 C0.375,5.10250854 1.10256959,4.37503052 1.99996948,4.37503052 C2.89746094,4.37503052 3.62503052,5.10250854 3.62503052,6 Z" id="Path"></path>
                                                <path d="M1.99996948,7.99996948 C0.897033703,7.99996948 0,7.10302734 0,6 C0,4.89697266 0.897033703,4.00003052 1.99996948,4.00003052 C3.10299682,4.00003052 4.00003052,4.89697266 4.00003052,6 C4.00003052,7.10302734 3.10299682,7.99996948 1.99996948,7.99996948 Z M1.99996948,4.75003052 C1.31048583,4.75003052 0.75,5.31097411 0.75,6 C0.75,6.68902589 1.31048583,7.24996948 1.99996948,7.24996948 C2.68954467,7.24996948 3.25003052,6.68902589 3.25003052,6 C3.25003052,5.31097411 2.68954467,4.75003052 1.99996948,4.75003052 Z" id="Shape"></path>
                                                <path d="M3.18054199,5.76004029 C3.00650025,5.76004029 2.83749389,5.66949464 2.7454834,5.50753784 C2.60897827,5.26803588 2.69302369,4.96252441 2.93252564,4.82546998 L7.57196044,2.18051147 C7.81146239,2.04299927 8.11697388,2.12704467 8.25402832,2.36746216 C8.39053345,2.60696412 8.30648803,2.91247559 8.06698608,3.04953002 L3.42745971,5.69448853 C3.34945678,5.73898315 3.26449584,5.76004029 3.18054199,5.76004029 Z" id="Path"></path>
                                                <path d="M7.81951903,9.88504029 C7.73547363,9.88504029 7.6505127,9.86398315 7.57250977,9.81948853 L2.9329834,7.17453002 C2.69348145,7.03802489 2.60952759,6.73251342 2.7460327,6.49246216 C2.88198853,6.25250245 3.18795776,6.16799927 3.42800904,6.30551147 L8.06753541,8.95046998 C8.30703736,9.08697511 8.39099121,9.39248658 8.25448608,9.63253784 C8.16201783,9.79449464 7.99301147,9.88504029 7.81951903,9.88504029 L7.81951903,9.88504029 Z" id="Path"></path>
                                            </g>
                                        </g>
                                    </g>
                                </g>
                            </g>
                        </g>
                    </g>
                </g>
            </g>
        </g>
    </g>
</svg>