<?xml version="1.0" encoding="UTF-8"?>
<svg width="16px" height="4px" viewBox="0 0 16 4" version="1.1" xmlns="http://www.w3.org/2000/svg" xmlns:xlink="http://www.w3.org/1999/xlink">
    <!-- Generator: Sketch 51.2 (57519) - http://www.bohemiancoding.com/sketch -->
    <title>More icon</title>
    <desc>Created with Sketch.</desc>
    <defs></defs>
    <g id="Symbols" stroke="none" stroke-width="1" fill="none" fill-rule="evenodd">
        <g id="Card-header/simple-status" transform="translate(-318.000000, -19.000000)" fill="#646E82">
            <g id="Card-header">
                <g id="More-icon/high" transform="translate(317.000000, 19.000000)">
                    <g id="More-icon" transform="translate(1.000000, 0.000000)">
                        <g id="Shapes" fill-rule="nonzero">
                            <path d="M2,0 C0.895833333,0 0,0.895833333 0,2 C0,3.10416667 0.895833333,4 2,4 C3.10416667,4 4,3.10416667 4,2 C4,0.895833333 3.10416667,0 2,0 Z" id="Path"></path>
                            <path d="M8,0 C6.89583333,0 6,0.895833333 6,2 C6,3.10416667 6.89583333,4 8,4 C9.10416667,4 10,3.10416667 10,2 C10,0.895833333 9.10416667,0 8,0 Z" id="Path"></path>
                            <path d="M14,0 C12.8958333,0 12,0.895833333 12,2 C12,3.10416667 12.8958333,4 14,4 C15.1041667,4 16,3.10416667 16,2 C16,0.895833333 15.1041667,0 14,0 Z" id="Path"></path>
                        </g>
                    </g>
                </g>
            </g>
        </g>
    </g>
</svg>