<svg width="20" height="20" viewBox="0 0 20 20" xmlns="http://www.w3.org/2000/svg">
    <g fill="none" fill-rule="evenodd">
        <path fill="none" d="M0 0h20v20H0z"/>
        <path d="M14.886 5.047a3.238 3.238 0 0 1 2.497 2.034h.017l1.196 3.321c.264.53.402 1.113.404 1.704C19 14.25 17.231 16 15.062 16c-1.953 0-3.58-1.419-3.884-3.269-.313.31-.736.485-1.178.487-.457 0-.872-.189-1.178-.487C8.52 14.581 6.892 16 4.938 16 2.768 16 1 14.25 1 12.106c0-.542.113-1.06.317-1.53l1.282-3.547.018-.017v-.018c.41-.987 1.055-1.78 2.39-1.947 1.533-.323 3.088 1.08 3.34 2.034h3.305c.252-.954 1.574-2.331 3.234-2.034zm.177 4.277c-1.56 0-2.813 1.239-2.813 2.782 0 1.542 1.253 2.781 2.813 2.781 1.56 0 2.812-1.239 2.812-2.781 0-.394-.099-.757-.246-1.096-.009-.022-.009-.048-.017-.07a2.778 2.778 0 0 0-1.035-1.178 2.822 2.822 0 0 0-1.515-.438zm-10.126 0c-1.56 0-2.812 1.239-2.812 2.782 0 1.542 1.253 2.781 2.813 2.781 1.56 0 2.812-1.239 2.812-2.781 0-1.543-1.253-2.782-2.813-2.782zM10 10.993a.552.552 0 0 0-.563.556c0 .313.247.557.563.557a.552.552 0 0 0 .563-.557.552.552 0 0 0-.563-.556z" fill="#61656F" fill-rule="nonzero"/>
    </g>
</svg>
